<?xml version="1.0" standalone="no"?>
<!DOCTYPE svg PUBLIC "-//W3C//DTD SVG 20010904//EN"
 "http://www.w3.org/TR/2001/REC-SVG-20010904/DTD/svg10.dtd">
<svg version="1.0" xmlns="http://www.w3.org/2000/svg"
 width="1741.000000pt" height="1021.000000pt" viewBox="0 0 1741.000000 1021.000000"
 preserveAspectRatio="xMidYMid meet">
<metadata>
Created by potrace 1.16, written by Peter Selinger 2001-2019
</metadata>
<g transform="translate(0.000000,1021.000000) scale(0.100000,-0.100000)"
fill="#000000" stroke="none">
<path d="M2215 9588 c-123 -24 -266 -64 -345 -96 -47 -20 -87 -38 -90 -41 -3
-3 -21 -14 -41 -23 -31 -14 -73 -41 -208 -130 -14 -10 -71 -62 -126 -116 -226
-223 -364 -488 -420 -807 -13 -77 -15 -456 -15 -3174 1 -2992 1 -3089 20
-3186 35 -185 45 -217 108 -360 125 -280 374 -543 653 -688 74 -39 218 -96
269 -108 19 -4 64 -15 100 -24 36 -9 128 -20 205 -25 180 -12 12605 -12 12775
-1 194 14 380 65 545 150 390 201 649 526 760 954 47 180 46 90 42 3347 -4
3254 -1 3051 -45 3245 -11 48 -47 157 -68 205 -40 90 -131 251 -174 304 -98
123 -181 206 -305 303 -120 95 -325 192 -504 239 -177 46 163 44 -6675 43
-4013 -1 -6430 -5 -6461 -11z m5205 -1005 c213 -60 337 -189 462 -483 82 -192
163 -534 216 -920 6 -41 16 -111 22 -155 10 -71 17 -289 11 -338 -2 -13 -8
-16 -21 -12 -12 4 -23 -1 -33 -16 -9 -11 -20 -18 -26 -15 -7 5 -8 1 -4 -10 5
-14 2 -16 -23 -11 -16 3 -23 4 -16 1 21 -10 13 -26 -9 -19 -16 5 -19 4 -14 -5
5 -9 2 -10 -14 -5 -17 5 -20 3 -15 -10 5 -11 2 -16 -7 -15 -8 1 -21 2 -29 1
-13 -1 -13 -2 0 -12 12 -9 11 -10 -8 -6 -13 3 -20 1 -16 -5 7 -10 -13 -28 -31
-28 -5 0 -3 5 5 10 17 11 10 13 -14 4 -8 -3 -12 -12 -9 -20 4 -10 0 -12 -11
-8 -9 3 -16 1 -16 -5 0 -6 -7 -11 -15 -11 -8 0 -15 -5 -15 -11 0 -7 -9 -9 -21
-6 -15 4 -19 2 -15 -9 4 -12 1 -14 -14 -9 -15 5 -18 3 -14 -9 7 -17 -35 -32
-62 -22 -15 6 -15 4 -3 -10 12 -15 11 -16 -10 -9 -20 6 -23 4 -18 -9 6 -14 3
-16 -13 -11 -15 5 -18 3 -14 -9 5 -12 2 -15 -10 -10 -9 3 -16 13 -16 21 0 8
-5 11 -10 8 -6 -4 -10 -12 -9 -18 1 -7 1 -21 0 -32 -3 -37 -31 58 -31 107 0
26 -4 57 -9 70 -5 13 -15 55 -21 93 -15 83 -37 172 -49 200 -5 11 -17 43 -26
70 -10 28 -26 62 -36 77 -11 14 -19 30 -19 35 0 11 -65 73 -100 97 -32 21
-121 21 -166 0 -112 -53 -199 -244 -273 -599 -62 -294 -96 -896 -87 -1535 3
-245 8 -463 10 -485 3 -22 7 -96 10 -165 10 -216 55 -581 87 -705 25 -95 30
-113 45 -165 9 -30 37 -98 62 -150 70 -148 157 -220 266 -220 19 0 37 4 40 9
3 4 19 11 35 14 64 13 185 160 280 338 l51 96 0 311 0 311 -60 7 c-33 3 -57
10 -55 15 7 10 -58 18 -182 21 -94 3 -103 1 -111 -17 -15 -33 -24 343 -20 890
l3 500 488 3 487 2 -2 -1452 -3 -1453 -29 -60 c-166 -349 -309 -607 -375 -677
-9 -9 -38 -43 -65 -77 -28 -34 -55 -61 -61 -61 -6 0 -18 -11 -25 -25 -7 -13
-17 -22 -22 -19 -4 3 -8 -1 -8 -9 0 -7 -9 -13 -21 -13 -12 1 -24 -6 -27 -14
-5 -13 -3 -13 14 0 18 14 18 14 5 -2 -15 -20 -47 -25 -35 -6 5 7 3 8 -5 4 -7
-5 -10 -15 -7 -23 5 -12 1 -14 -20 -9 -17 5 -23 3 -19 -4 3 -5 -1 -10 -10 -10
-9 0 -13 5 -10 10 3 6 2 10 -3 10 -18 0 -21 -29 -4 -32 9 -2 -13 -4 -49 -5
-73 -1 -135 -22 -66 -23 20 0 37 -5 37 -11 0 -7 -13 -9 -37 -5 -21 3 -86 7
-144 8 -72 2 -111 8 -123 17 -9 7 -16 11 -16 8 0 -3 -21 0 -47 8 -26 8 -49 12
-51 10 -3 -3 4 -7 14 -10 10 -4 27 -11 36 -16 10 -5 29 -9 43 -9 14 0 25 -5
25 -11 0 -6 10 -10 23 -9 12 1 65 1 117 0 74 -1 90 -3 70 -11 -42 -17 -224 -4
-285 20 -61 25 -105 47 -105 54 0 4 -5 7 -11 7 -23 0 -140 104 -190 170 -41
53 -108 161 -131 210 -31 67 -65 145 -77 180 -7 19 -18 46 -23 60 -22 53 -27
67 -43 125 -9 33 -20 69 -25 80 -14 37 -29 90 -45 160 -9 39 -20 86 -25 105
-10 37 -31 141 -50 250 -6 36 -16 85 -21 110 -5 25 -14 81 -19 125 -6 44 -15
112 -20 150 -16 115 -29 233 -40 360 -6 66 -15 163 -20 215 -48 495 -52 1443
-10 2105 60 936 213 1653 447 2094 126 238 227 337 420 411 84 32 304 33 413
3z m-5220 -92 l95 -6 5 -1180 5 -1180 338 -3 337 -2 0 1179 c0 933 3 1182 13
1188 6 4 146 8 310 8 250 -1 300 -3 307 -15 13 -21 13 -6485 0 -6608 -12 -116
-19 -144 -33 -135 -6 4 -8 0 -4 -10 6 -16 -18 -17 -294 -17 -234 0 -300 3
-298 12 1 7 1 622 0 1366 l-1 1352 -340 0 -340 0 -2 -1322 c-3 -1230 -4 -1326
-20 -1360 -13 -27 -15 -38 -5 -41 11 -5 -499 -12 -550 -8 -11 1 -24 -3 -28 -9
-3 -5 -11 -8 -16 -5 -5 4 -9 1316 -9 3400 l0 3394 88 4 c145 6 341 5 442 -2z
m3073 -10 c4 -4 14 -70 22 -147 8 -76 19 -177 25 -224 11 -90 35 -300 50 -440
12 -108 38 -340 51 -450 5 -47 14 -123 19 -170 20 -194 31 -289 40 -365 11
-96 25 -213 45 -395 8 -74 20 -173 25 -220 5 -47 17 -150 25 -230 8 -80 20
-181 25 -225 5 -44 14 -120 20 -170 5 -49 14 -128 20 -175 5 -47 14 -128 20
-180 5 -52 21 -194 35 -315 14 -121 30 -258 35 -305 5 -47 16 -148 24 -224 9
-77 18 -162 21 -190 3 -28 10 -85 15 -126 6 -41 19 -160 31 -265 11 -104 24
-226 29 -270 21 -186 41 -365 50 -440 5 -44 14 -123 20 -175 16 -148 40 -357
50 -445 51 -447 58 -550 40 -595 l-12 -30 -288 0 -287 0 -11 23 c-6 12 -13 29
-15 37 -3 8 -6 4 -6 -11 -1 -14 4 -30 11 -37 6 -6 9 -15 5 -19 -17 -17 -31 24
-38 109 -9 112 -41 471 -63 698 -3 30 -11 109 -17 175 -7 66 -17 123 -23 127
-6 4 -163 8 -349 8 l-337 0 -10 -22 c-5 -13 -14 -86 -20 -163 -6 -77 -15 -185
-20 -240 -5 -55 -14 -161 -20 -235 -15 -189 -39 -370 -52 -394 -6 -12 -17 -25
-25 -29 -7 -5 -11 -12 -8 -18 4 -5 -104 -9 -280 -9 -187 0 -284 3 -280 10 3 5
1 18 -4 27 -9 15 -10 13 -11 -14 0 -18 -5 -33 -11 -33 -7 0 -9 13 -6 38 4 20
11 91 16 157 6 66 14 136 17 155 3 19 10 73 15 120 8 84 31 285 50 450 5 47
14 123 19 170 5 47 16 148 25 225 9 77 20 178 25 225 10 95 36 322 50 445 12
102 26 223 45 400 9 77 20 178 26 225 5 47 14 128 19 180 6 52 15 133 20 180
21 172 49 421 70 620 6 52 15 127 20 165 5 39 12 102 15 140 3 39 10 102 15
140 5 39 14 113 19 165 6 52 15 133 21 180 5 47 14 128 20 180 5 52 14 133 19
180 15 126 40 353 51 450 23 208 56 507 70 625 13 115 39 346 50 445 5 47 16
146 25 220 8 74 18 164 21 200 10 114 5 109 82 113 102 7 606 -3 615 -12z
m5037 3 c12 -12 9 -1559 -3 -1599 -3 -11 -6 -23 -6 -27 -1 -5 -8 -8 -17 -8 -8
0 -12 -5 -9 -10 4 -6 10 -8 15 -5 4 3 10 -2 14 -10 5 -13 -36 -15 -307 -17
l-312 -3 -5 -2485 c-5 -2226 -7 -2491 -21 -2542 -9 -32 -14 -60 -11 -63 3 -3
-123 -4 -279 -4 -156 1 -276 3 -266 6 22 6 12 23 -14 23 -13 0 -19 -7 -19 -22
0 -15 -3 -19 -10 -12 -7 7 -11 878 -12 2554 l-3 2545 -317 3 -318 2 -5 23 c-3
12 -4 389 -3 837 l3 815 90 6 c179 11 1803 5 1815 -7z m1958 3 c17 -11 18
-1261 0 -1339 -6 -29 -11 -56 -10 -60 1 -5 -4 -8 -10 -8 -8 0 -5 -7 6 -15 18
-13 -32 -15 -426 -15 -245 0 -479 -3 -521 -6 l-77 -7 0 -532 c0 -477 2 -534
16 -539 9 -3 227 -6 485 -6 l470 0 -3 -658 c-2 -539 -5 -662 -17 -675 -12 -15
-57 -17 -415 -20 l-401 -2 413 -3 c266 -1 412 -6 412 -12 0 -7 -149 -10 -427
-10 -236 0 -452 -3 -480 -6 l-53 -7 0 -663 0 -664 528 0 c290 0 533 -4 540 -9
11 -6 12 -145 10 -727 -3 -749 -5 -773 -45 -775 -12 -1 -10 -4 7 -9 14 -4
-348 -8 -805 -8 -456 0 -821 3 -810 7 17 7 17 8 -8 13 -15 3 -30 1 -33 -3 -3
-5 1 -9 8 -9 9 0 9 -3 -2 -10 -13 -8 -16 4 -21 83 -9 140 -10 6670 -1 6684 5
7 41 14 92 16 165 7 1565 2 1578 -6z m969 0 c5 -6 26 -98 43 -187 4 -25 20
-103 35 -175 15 -71 31 -148 35 -170 20 -107 52 -264 60 -295 8 -31 40 -188
60 -295 4 -22 20 -98 35 -170 15 -71 29 -141 32 -155 3 -14 14 -70 25 -125 12
-55 24 -118 28 -140 9 -46 146 -721 196 -965 19 -91 39 -187 43 -215 5 -27 18
-93 29 -145 11 -52 22 -106 25 -120 5 -28 44 -215 82 -394 14 -66 27 -122 30
-124 3 -3 5 821 5 1831 0 1341 3 1838 11 1843 18 11 569 8 580 -3 6 -6 8
-1197 6 -3334 -3 -3423 -3 -3435 -40 -3412 -6 4 -8 0 -4 -10 6 -15 -18 -17
-253 -19 -239 -3 -260 -2 -260 14 0 9 -4 20 -10 23 -6 4 -10 -5 -10 -19 0 -35
-16 -33 -23 2 -3 15 -17 83 -32 152 -15 69 -31 143 -35 165 -24 119 -41 205
-50 245 -6 25 -14 68 -20 95 -5 28 -17 86 -26 130 -9 44 -20 98 -24 120 -24
123 -41 205 -50 245 -9 43 -33 157 -50 245 -4 22 -17 85 -28 140 -11 55 -23
111 -25 125 -3 14 -17 84 -32 155 -32 152 -39 188 -55 274 -6 36 -13 67 -15
71 -2 4 -9 33 -14 66 -6 32 -19 102 -30 154 -11 52 -25 120 -31 150 -6 30 -15
71 -20 90 -5 19 -16 76 -25 125 -9 50 -20 106 -25 125 -5 19 -19 85 -31 145
-31 159 -35 177 -64 315 -31 145 -42 200 -52 255 l-7 40 -7 -40 c-4 -22 -8
-810 -8 -1752 -1 -1040 -5 -1731 -11 -1762 -18 -97 1 -91 -290 -90 -140 0
-246 4 -236 8 18 7 18 8 3 14 -10 4 -22 17 -27 29 -8 20 -9 19 -9 -14 -1 -20
-6 -40 -11 -43 -7 -4 -9 1123 -8 3387 l3 3393 85 5 c109 7 489 4 497 -3z
m2296 6 l127 -6 -2 -3361 c-2 -2623 -6 -3365 -15 -3381 -7 -11 -13 -16 -13
-12 0 5 -5 5 -12 1 -8 -5 -6 -10 8 -15 10 -4 -117 -8 -282 -8 l-302 -1 -2 128
c-1 70 -2 165 -2 212 0 47 1 1515 1 3262 l1 3177 123 4 c67 1 149 4 182 5 33
1 117 -1 188 -5z m-8110 -4330 c-13 -2 -33 -2 -45 0 -13 2 -3 4 22 4 25 0 35
-2 23 -4z m-3 -2533 c0 -5 -9 -10 -21 -10 -11 0 -17 5 -14 10 3 6 13 10 21 10
8 0 14 -4 14 -10z"/>
<path d="M7180 7140 c0 -13 11 -13 30 0 12 8 11 10 -7 10 -13 0 -23 -4 -23
-10z"/>
<path d="M7551 6424 c0 -11 3 -14 6 -6 3 7 2 16 -1 19 -3 4 -6 -2 -5 -13z"/>
<path d="M6867 1699 c7 -7 15 -10 18 -7 3 3 -2 9 -12 12 -14 6 -15 5 -6 -5z"/>
<path d="M6900 1682 c0 -4 9 -13 20 -20 11 -7 20 -9 20 -4 0 4 -9 13 -20 20
-11 7 -20 9 -20 4z"/>
<path d="M2450 4470 c-14 -5 69 -8 195 -9 145 0 215 3 205 9 -18 12 -364 12
-400 0z"/>
<path d="M3010 1730 c0 -5 5 -10 10 -10 6 0 10 5 10 10 0 6 -4 10 -10 10 -5 0
-10 -4 -10 -10z"/>
<path d="M3535 1730 c-3 -5 -2 -10 4 -10 5 0 13 5 16 10 3 6 2 10 -4 10 -5 0
-13 -4 -16 -10z"/>
<path d="M4916 6598 c-3 -7 -7 -49 -10 -93 -4 -44 -10 -123 -15 -175 -5 -52
-19 -196 -30 -320 -11 -124 -25 -272 -31 -330 -6 -58 -17 -181 -25 -275 -22
-251 -35 -388 -46 -500 -10 -110 -35 -403 -44 -532 l-5 -83 221 0 221 0 -6 28
c-4 15 -11 81 -16 147 -8 103 -24 290 -45 520 -3 33 -10 103 -15 155 -6 52
-17 174 -25 270 -15 176 -26 287 -45 480 -6 58 -15 159 -21 225 -5 66 -15 167
-20 225 -6 58 -13 142 -16 188 -5 73 -17 104 -27 70z"/>
<path d="M4700 2840 c8 -5 108 -10 230 -10 122 0 222 5 230 10 10 6 -68 10
-230 10 -162 0 -240 -4 -230 -10z"/>
<path d="M8426 6851 c-4 -6 -6 -11 -4 -12 25 -6 38 -5 49 3 11 8 11 9 -2 5 -9
-3 -21 -1 -27 5 -6 6 -12 6 -16 -1z"/>
<path d="M10245 6851 c-3 -5 -1 -12 5 -16 5 -3 10 1 10 9 0 18 -6 21 -15 7z"/>
<path d="M8568 6843 c6 -2 18 -2 25 0 6 3 1 5 -13 5 -14 0 -19 -2 -12 -5z"/>
<path d="M10123 6843 c9 -2 23 -2 30 0 6 3 -1 5 -18 5 -16 0 -22 -2 -12 -5z"/>
<path d="M11420 7076 c0 -10 28 -13 41 -5 10 6 7 9 -13 9 -16 0 -28 -2 -28 -4z"/>
<path d="M12183 7073 c9 -2 23 -2 30 0 6 3 -1 5 -18 5 -16 0 -22 -2 -12 -5z"/>
<path d="M14050 1730 c0 -5 5 -10 11 -10 5 0 7 5 4 10 -3 6 -8 10 -11 10 -2 0
-4 -4 -4 -10z"/>
<path d="M15070 1730 c0 -5 5 -10 11 -10 5 0 7 5 4 10 -3 6 -8 10 -11 10 -2 0
-4 -4 -4 -10z"/>
<path d="M16471 2004 c0 -11 3 -14 6 -6 3 7 2 16 -1 19 -3 4 -6 -2 -5 -13z"/>
<path d="M16450 1931 c0 -37 -72 -236 -119 -331 -40 -80 -109 -191 -150 -242
-84 -105 -228 -244 -326 -316 -153 -113 -396 -214 -610 -255 -74 -15 -12980
-17 -13088 -3 -37 5 -70 13 -73 17 -3 5 -15 9 -27 9 -21 -1 -21 -1 -3 -12 39
-23 165 -48 286 -58 147 -13 12834 -8 12915 4 28 4 80 16 116 27 36 10 71 19
78 19 23 0 197 73 284 118 48 25 122 72 165 105 82 62 242 210 242 225 0 5 11
19 25 32 21 20 72 93 123 175 59 96 126 263 161 399 24 90 25 106 11 106 -5 0
-10 -9 -10 -19z"/>
<path d="M1945 830 c3 -5 8 -10 11 -10 2 0 4 5 4 10 0 6 -5 10 -11 10 -5 0 -7
-4 -4 -10z"/>
<path d="M1998 813 c7 -3 16 -2 19 1 4 3 -2 6 -13 5 -11 0 -14 -3 -6 -6z"/>
</g>
</svg>
